#!OML:ASF E:\inclinewalkrobotboard\Project 1\Capture day 1\Session 1\subject1.ASF
:FULLY-SPECIFIED
:DEGREES
433
root 8.4247 17.3511 -7.48427 -165.5 6.08687 185.65
lowerback -4.43323 0.0977939 -11.2919
upperback 3.00216 0.868841 1.71848
thorax 5.51616 -0.0240564 8.28656
lowerneck -11.1976 -3.37731 -2.87457
upperneck 24.8252 -5.20957 10.1061
head 10.0907 -0.982183 3.53633
rclavicle 7.55382e-015 3.18055e-015
rhumerus -47.2116 -22.5181 -61.3867
rradius 22.7221
rwrist 25.6314
rhand -6.60225 -32.7572
rfingers 7.12502
rthumb 19.2533 -61.8242
lclavicle 7.55382e-015 3.18055e-015
lhumerus -19.8356 -9.65285 77.7247
lradius 22.0187
lwrist -19.8989
lhand -26.9994 -22.3143
lfingers 7.12502
lthumb -0.419548 7.66503
rfemur -20.1385 9.02982 5.18846
rtibia 13.9272
rfoot -11.9682 -5.8458
rtoes -30.918
lfemur -13.5793 -8.6408 -12.2157
ltibia 10.266
lfoot -18.3983 12.6264
ltoes -63.9971
434
root 8.41546 17.3493 -7.60266 -165.949 5.86494 185.518
lowerback -4.57985 -0.28238 -11.1179
upperback 3.16228 0.368306 1.87898
thorax 5.88686 -0.298624 8.32269
lowerneck -11.5309 -3.31378 -2.91219
upperneck 25.3359 -5.09349 9.96552
head 10.3294 -0.916207 3.52386
rclavicle -9.93923e-015 -5.32743e-014
rhumerus -48.673 -23.3361 -60.4937
rradius 22.369
rwrist 25.6727
rhand -6.39816 -32.8975
rfingers 7.12502
rthumb 19.4496 -61.9448
lclavicle -9.93923e-015 -5.32743e-014
lhumerus -18.4729 -10.2765 78.1208
lradius 21.9812
lwrist -19.655
lhand -27.8395 -22.6639
lfingers 7.12502
lthumb -1.23088 7.31227
rfemur -20.5472 8.93473 4.91958
rtibia 13.6846
rfoot -11.1458 -6.05193
rtoes -30.5104
lfemur -12.5887 -8.81583 -12.6266
ltibia 10.1056
lfoot -18.5998 12.6005
ltoes -64.3451
435
root 8.41475 17.3427 -7.71267 -166.262 5.4919 185.312
lowerback -4.63803 -0.723932 -11.0865
upperback 3.18611 -0.229611 2.08283
thorax 6.08527 -0.613069 8.47137
lowerneck -11.976 -3.30136 -2.97369
upperneck 25.9676 -5.04443 9.81988
head 10.6436 -0.876046 3.51059
rclavicle 9.93923e-015 2.8625e-014
rhumerus -50.3268 -24.2713 -59.2183
rradius 21.9376
rwrist 26.4403
rhand -6.13952 -32.5272
rfingers 7.12502
rthumb 19.6982 -61.5492
lclavicle 9.93923e-015 2.8625e-014
lhumerus -17.3469 -10.486 78.5556
lradius 22.0532
lwrist -19.8732
lhand -29.0457 -23.1943
lfingers 7.12502
lthumb -2.39583 6.77197
rfemur -21.1437 8.76981 4.56432
rtibia 13.6854
rfoot -10.6757 -6.36699
rtoes -30.6466
lfemur -11.8488 -9.104 -13.0235
ltibia 9.99642
lfoot -18.7788 12.6732
ltoes -64.71
436
root 8.42157 17.3324 -7.82139 -166.683 5.1654 184.945
lowerback -4.46391 -1.11688 -11.233
upperback 3.16681 -0.774515 2.21648
thorax 6.09856 -0.893267 8.64726
lowerneck -12.1316 -3.25164 -3.00115
upperneck 26.4847 -4.93259 9.70994
head 10.856 -0.80674 3.5105
rclavicle -2.18663e-015 3.26007e-014
rhumerus -52.1219 -24.9588 -58.0166
rradius 21.6838
rwrist 27.1699
rhand -5.48533 -32.3084
rfingers 7.12502
rthumb 20.327 -61.2647
lclavicle -2.18663e-015 3.26007e-014
lhumerus -16.2712 -10.58 78.9655
lradius 22.1112
lwrist -20.4516
lhand -28.1369 -22.5834
lfingers 7.12502
lthumb -1.51818 7.39092
rfemur -21.6931 8.36013 4.11315
rtibia 13.8357
rfoot -10.1569 -6.46592
rtoes -33.1847
lfemur -10.9636 -9.28294 -13.6474
ltibia 9.86631
lfoot -18.8921 12.6462
ltoes -64.9923
437
root 8.43793 17.3196 -7.92829 -167.018 4.7466 184.54
lowerback -4.37639 -1.53003 -11.4235
upperback 3.20206 -1.3286 2.33488
thorax 6.23044 -1.18897 8.83028
lowerneck -12.4414 -3.18754 -2.9526
upperneck 26.9312 -4.80744 9.49118
head 11.0689 -0.744996 3.45466
rclavicle -1.21259e-014 -4.77083e-015
rhumerus -53.7679 -25.9181 -56.7594
rradius 21.4034
rwrist 27.9768
rhand -5.1324 -32.183
rfingers 7.12502
rthumb 20.6662 -61.1027
lclavicle -1.21259e-014 -4.77083e-015
lhumerus -15.0144 -10.9749 79.3325
lradius 22.0253
lwrist -20.7753
lhand -27.0521 -21.9861
lfingers 7.12502
lthumb -0.470425 7.99311
rfemur -22.373 7.88616 3.62584
rtibia 14.0948
rfoot -9.62946 -6.62951
rtoes -34.8797
lfemur -10.2708 -9.32457 -14.2297
ltibia 9.86231
lfoot -18.939 12.3738
ltoes -65.3508
438
root 8.45935 17.3073 -8.03909 -167.304 4.57618 184.32
lowerback -4.44433 -1.86895 -11.4891
upperback 3.26731 -1.77631 2.51805
thorax 6.46122 -1.43631 9.02012
lowerneck -12.6321 -3.06689 -2.91139
upperneck 27.2597 -4.57339 9.1749
head 11.2034 -0.658641 3.37289
rclavicle -2.78299e-014 1.90833e-014
rhumerus -55.3122 -27.21 -55.1258
rradius 20.837
rwrist 29.2021
rhand -5.17959 -31.9858
rfingers 7.12502
rthumb 20.6209 -60.9104
lclavicle -2.78299e-014 1.90833e-014
lhumerus -13.809 -11.4056 79.6949
lradius 21.8813
lwrist -21.0146
lhand -26.898 -22.1599
lfingers 7.12502
lthumb -0.32153 7.81964
rfemur -23.2204 7.88644 3.24843
rtibia 14.4572
rfoot -9.3259 -6.77979
rtoes -32.9976
lfemur -9.50187 -9.49782 -14.5575
ltibia 9.72067
lfoot -19.0496 12.5292
ltoes -65.7698
439
root 8.48035 17.3007 -8.15043 -167.67 4.40219 184.341
lowerback -4.33775 -2.15446 -11.1888
upperback 3.3359 -2.19691 2.69169
thorax 6.57024 -1.64496 8.9908
lowerneck -12.7758 -2.96376 -2.80631
upperneck 27.6241 -4.39761 8.99146
head 11.3511 -0.569329 3.32472
rclavicle 2.5842e-015 -2.8625e-014
rhumerus -56.9837 -28.7531 -53.1265
rradius 19.9814
rwrist 31.214
rhand -5.8534 -30.807
rfingers 7.12502
rthumb 19.9733 -59.8006
lclavicle 2.5842e-015 -2.8625e-014
lhumerus -12.6721 -11.924 79.9438
lradius 21.7126
lwrist -21.0966
lhand -26.7445 -22.3076
lfingers 7.12502
lthumb -0.173325 7.67204
rfemur -23.8013 8.18805 3.14704
rtibia 14.5462
rfoot -9.07288 -7.00508
rtoes -30.8462
lfemur -8.63776 -9.67451 -14.6166
ltibia 9.60421
lfoot -19.1381 12.8699
ltoes -66.2946
440
root 8.50327 17.2904 -8.27079 -167.954 4.03792 184.234
lowerback -4.35233 -2.51777 -10.9206
upperback 3.41708 -2.70288 2.81799
thorax 6.78167 -1.90195 8.91293
lowerneck -13.0116 -2.8849 -2.53541
upperneck 28.0558 -4.26748 8.69048
head 11.5424 -0.493729 3.19994
rclavicle -2.18663e-015 -3.81667e-014
rhumerus -58.8216 -30.5217 -50.6875
rradius 19.1184
rwrist 33.5668
rhand -6.58686 -29.3866
rfingers 7.12502
rthumb 19.2681 -58.452
lclavicle -2.18663e-015 -3.81667e-014
lhumerus -11.6614 -12.7424 80.1505
lradius 21.6473
lwrist -20.7789
lhand -26.8008 -22.2155
lfingers 7.12502
lthumb -0.227674 7.76416
rfemur -24.2027 8.03955 2.99583
rtibia 14.3137
rfoot -8.61684 -7.30317
rtoes -32.3129
lfemur -7.85943 -9.7762 -14.8235
ltibia 9.53514
lfoot -19.1811 12.9778
ltoes -66.8883
441
root 8.53614 17.2755 -8.39506 -168.176 3.73361 183.828
lowerback -4.36794 -2.90753 -11.1184
upperback 3.40609 -3.22014 2.96326
thorax 6.93063 -2.18104 9.12281
lowerneck -13.077 -2.82141 -2.31829
upperneck 28.4181 -4.10223 8.23958
head 11.6681 -0.435322 3.02887
rclavicle 3.97569e-015 2.14687e-014
rhumerus -60.5079 -31.7042 -48.586
rradius 18.6099
rwrist 34.4854
rhand -6.01161 -30.0417
rfingers 7.12502
rthumb 19.8212 -59.051
lclavicle 3.97569e-015 2.14687e-014
lhumerus -10.909 -13.5991 80.4399
lradius 21.6943
lwrist -20.2752
lhand -26.7272 -22.3166
lfingers 7.12502
lthumb -0.15659 7.6631
rfemur -24.6675 7.74047 2.50208
rtibia 14.1097
rfoot -8.30694 -7.47638
rtoes -33.0405
lfemur -7.15163 -9.78736 -15.3322
ltibia 9.48739
lfoot -19.3226 12.812
ltoes -67.1516
442
root 8.57607 17.2594 -8.51871 -168.327 3.39192 183.592
lowerback -4.33369 -3.29335 -11.1923
upperback 3.33752 -3.75537 3.201
thorax 6.99544 -2.45916 9.36145
lowerneck -13.1135 -2.76647 -2.19058
upperneck 28.7416 -3.93547 7.82549
head 11.7774 -0.384711 2.88536
rclavicle 1.0138e-014 -4.09496e-014
rhumerus -61.9843 -32.4472 -46.8356
rradius 18.109
rwrist 35.0789
rhand -5.71842 -31.093
rfingers 7.12502
rthumb 20.103 -60.073
lclavicle 1.0138e-014 -4.09496e-014
lhumerus -10.1134 -13.5848 80.7952
lradius 21.4576
lwrist -20.5971
lhand -26.2761 -22.689
lfingers 7.12502
lthumb 0.279106 7.29058
rfemur -25.1501 7.64374 2.15928
rtibia 13.9552
rfoot -8.29528 -7.64414
rtoes -30.9657
lfemur -6.60818 -9.69747 -15.5595
ltibia 9.59564
lfoot -19.6645 12.4616
ltoes -67.1878
443
root 8.61462 17.2403 -8.65842 -168.659 3.14792 183.24
lowerback -4.3671 -3.62743 -11.1876
upperback 3.42894 -4.19959 3.29215
thorax 7.23704 -2.69895 9.39553
lowerneck -13.5728 -2.78471 -2.11872
upperneck 29.2451 -3.92213 7.57794
head 12.0635 -0.376533 2.80008
rclavicle -4.67144e-014 -6.75868e-015
rhumerus -63.7738 -33.6457 -44.4282
rradius 17.4214
rwrist 36.9233
rhand -6.12119 -31.2181
rfingers 7.12502
rthumb 19.7158 -60.2382
lclavicle -4.67144e-014 -6.75868e-015
lhumerus -9.23738 -13.3345 81.0711
lradius 21.0497
lwrist -21.4664
lhand -26.2374 -22.8086
lfingers 7.12502
lthumb 0.316431 7.17088
rfemur -25.2794 7.33548 1.79824
rtibia 13.5711
rfoot -8.13185 -7.5856
rtoes -30.2374
lfemur -5.58553 -9.85648 -16.0703
ltibia 9.42314
lfoot -20.1369 12.3325
ltoes -67.2454
444
root 8.66668 17.2184 -8.7577 -168.675 2.73277 182.573
lowerback -4.09791 -3.99246 -11.5498
upperback 3.30894 -4.7048 3.31659
thorax 7.11867 -2.95714 9.57682
lowerneck -13.6948 -2.7241 -2.07338
upperneck 29.5818 -3.77452 7.35948
head 12.2078 -0.316638 2.74314
rclavicle -5.66536e-015 -3.29983e-014
rhumerus -66.061 -35.2547 -41.1486
rradius 16.659
rwrist 39.6922
rhand -6.1338 -31.3656
rfingers 7.12502
rthumb 19.7037 -60.387
lclavicle -5.66536e-015 -3.29983e-014
lhumerus -8.39701 -13.2199 81.2419
lradius 20.8359
lwrist -21.6396
lhand -25.7978 -22.545
lfingers 7.12502
lthumb 0.741032 7.43342
rfemur -25.9977 6.70869 1.07263
rtibia 13.4082
rfoot -7.84161 -7.79793
rtoes -31.8796
lfemur -5.36291 -9.84819 -16.6495
ltibia 9.62192
lfoot -20.3412 12.0445
ltoes -67.5535
445
root 8.70807 17.1996 -8.89474 -168.973 2.70399 182.232
lowerback -3.97751 -4.20256 -11.4045
upperback 3.33125 -5.01001 3.36334
thorax 7.1431 -3.10423 9.50709
lowerneck -13.7244 -2.70202 -2.08453
upperneck 29.7387 -3.67865 7.14113
head 12.2657 -0.299374 2.68051
rclavicle -8.44835e-015 2.78299e-015
rhumerus -68.3579 -36.5994 -37.6716
rradius 15.8173
rwrist 42.5791
rhand -5.98004 -31.4795
rfingers 7.12502
rthumb 19.8515 -60.4857
lclavicle -8.44835e-015 2.78299e-015
lhumerus -7.81876 -13.2048 81.4972
lradius 20.7026
lwrist -21.7798
lhand -25.013 -22.3859
lfingers 7.12502
lthumb 1.49897 7.58854
rfemur -26.2431 6.03746 0.886128
rtibia 13.1117
rfoot -7.35609 -7.66529
rtoes -36.0494
lfemur -4.27139 -10.0008 -17.1484
ltibia 9.3091
lfoot -20.7403 12.1618
ltoes -67.64
446
root 8.77131 17.1766 -9.02033 -168.857 2.59553 182.176
lowerback -3.93983 -4.43665 -11.1804
upperback 3.1631 -5.36628 3.59163
thorax 7.02972 -3.26471 9.58722
lowerneck -13.7645 -2.6632 -2.06466
upperneck 29.8731 -3.54701 6.84226
head 12.3124 -0.275878 2.58527
rclavicle 4.77083e-015 -9.14409e-015
rhumerus -70.5317 -37.586 -34.246
rradius 15.0597
rwrist 45.3268
rhand -5.71627 -31.463
rfingers 7.12502
rthumb 20.1051 -60.4427
lclavicle 4.77083e-015 -9.14409e-015
lhumerus -7.47012 -13.6976 81.7757
lradius 20.6303
lwrist -21.601
lhand -24.3774 -22.3599
lfingers 7.12502
lthumb 2.11284 7.60936
rfemur -26.9802 5.99762 0.845018
rtibia 12.9981
rfoot -7.06721 -8.283
rtoes -40.1293
lfemur -3.95263 -9.9439 -17.0045
ltibia 9.4027
lfoot -21.2233 11.9968
ltoes -67.6691
447
root 8.84678 17.1497 -9.15102 -168.742 2.68661 181.911
lowerback -3.95926 -4.60601 -11.2859
upperback 3.04444 -5.60181 3.76748
thorax 7.0056 -3.38704 9.81196
lowerneck -13.7363 -2.60655 -2.02341
upperneck 29.9936 -3.40141 6.60083
head 12.3399 -0.235008 2.51029
rclavicle -3.83157e-014 9.54166e-015
rhumerus -73.1878 -38.8351 -30.0336
rradius 14.4145
rwrist 48.6651
rhand -5.55283 -31.4123
rfingers 7.12502
rthumb 20.2622 -60.3754
lclavicle -3.83157e-014 9.54166e-015
lhumerus -6.95696 -14.3955 81.9975
lradius 20.4958
lwrist -21.3945
lhand -25.1105 -22.1987
lfingers 7.12502
lthumb 1.40487 7.7764
rfemur -27.8736 6.19417 0.485231
rtibia 12.9529
rfoot -6.65933 -8.51867
rtoes -40.4563
lfemur -3.71109 -9.81906 -17.0412
ltibia 9.62163
lfoot -21.8051 11.8554
ltoes -67.6669
